<svg width="80" height="27" fill="none" xmlns="http://www.w3.org/2000/svg"><path d="M18.024 25.659h-.488c0-.006-.002-.01-.003-.016l-.013-.06a3.965 3.965 0 00-.04-.17 8.343 8.343 0 00-.04-.153l-.004-.015a7.045 7.045 0 00-.047-.164l-.017-.053-.034-.112-.02-.06a6.476 6.476 0 00-.037-.108l-.02-.057a5.865 5.865 0 00-.049-.133l-.01-.028a6.746 6.746 0 00-.086-.21l-.043-.102-.028-.063a5.213 5.213 0 00-.072-.157c-.018-.038-.034-.075-.054-.111l-.02-.043a5.385 5.385 0 00-.075-.143l-.034-.061-.049-.088-.037-.065a11.461 11.461 0 00-.086-.146c-.018-.03-.034-.059-.054-.088l-.05-.079-.07-.109a6.114 6.114 0 00-.045-.067l-.049-.072-.049-.07a.827.827 0 00-.047-.065c-.016-.02-.034-.048-.052-.071l-.048-.065-.1-.13-.046-.06-.06-.073-.046-.055-.063-.074-.044-.052-.067-.075-.039-.043a8.133 8.133 0 00-.251-.265l-.038-.037-.078-.077-.039-.037a6.65 6.65 0 00-.082-.078l-.029-.026a7.08 7.08 0 00-.297-.26l-.028-.022a6.313 6.313 0 00-.094-.077l-.031-.025-.099-.077-.017-.013a8.89 8.89 0 00-.341-.249l-.017-.011a7.822 7.822 0 00-.11-.074l-.024-.016a7.578 7.578 0 00-.113-.073l-.007-.004a8.048 8.048 0 00-.384-.23l-.005-.003-.125-.067-.018-.01a8.305 8.305 0 00-.678-.324l-.014-.006a8.407 8.407 0 00-.185-.076h1.223c.2 0 .361-.217.361-.486 0-.268-.162-.486-.36-.486h-.365a9.24 9.24 0 00.074-.185c.345-.204.951-.637 1.553-1.434l.005-.006c.045-.06.09-.121.134-.185l.009-.013a6.53 6.53 0 00.13-.194l.012-.018.061-.097s0-.003.003-.004l.063-.103.013-.022.053-.091.01-.017.06-.107.014-.025a5.893 5.893 0 00.12-.227l.014-.027.045-.092.016-.033.055-.116.011-.025.045-.097.017-.04a6.703 6.703 0 00.105-.25l.017-.044.042-.107.01-.027.048-.13.016-.046.036-.104c.005-.013.01-.026.013-.04a11.457 11.457 0 00.06-.183l.034-.106.014-.047a7.18 7.18 0 00.054-.19l.03-.112.014-.051.037-.151.01-.043.029-.122.012-.055.034-.16a8.49 8.49 0 00.034-.173l.012-.057.026-.145.005-.03a16.346 16.346 0 00.058-.374l.006-.044.023-.18.007-.058.017-.146.006-.052.018-.19c0-.018.003-.035.004-.054.005-.05.01-.102.013-.154 0-.02.003-.038.005-.057l.013-.2c0-.015 0-.033.002-.046a12.941 12.941 0 00.012-.23l.007-.21v-.03l.004-.191v-.58c0-.065-.003-.133-.004-.2v-.037l-.009-.235-.003-.062a15.729 15.729 0 00-.01-.2c0-.017 0-.033-.003-.051l-.015-.245-.004-.057c-.006-.069-.01-.138-.017-.208 0-.02-.003-.04-.004-.06l-.023-.255c0-.016-.004-.032-.005-.049a29.189 29.189 0 00-.062-.554c0-.01-.003-.022-.004-.032l-.031-.242-.01-.072a68.777 68.777 0 00-.04-.279C15.239-1.407 5.55.09 5.55.09l.31 1.983L0 7.941l.256 2.266 2.22 1.296c.099-.239.226-.466.378-.677 1.432-1.566 4.21-2.795 5.006-3.05.16-.051.25-.077.25-.077-3.804 4.668-3.372 10.016-3.202 11.29-.177.033-.313.235-.313.481 0 .269.162.486.361.486h1.223c-2.034.808-3.65 2.346-4.492 4.278a7.672 7.672 0 00-.22.57l-.014.044a2.3 2.3 0 00-.034.11l-.018.056a5.41 5.41 0 00-.032.105l-.018.065a3.636 3.636 0 00-.047.172l-.025.097a4.542 4.542 0 00-.023.1l-.025.111H.743a.737.737 0 00-.508.19.638.638 0 000 .955.71.71 0 00.508.19H18.03a.737.737 0 00.508-.19.637.637 0 000-.955.71.71 0 00-.508-.19l-.006-.005zm20.25 0h-.488c0-.006-.002-.01-.003-.016l-.014-.06a4.312 4.312 0 00-.027-.116l-.013-.054a8.347 8.347 0 00-.04-.153l-.004-.015a6.187 6.187 0 00-.047-.164l-.016-.053-.034-.112-.02-.06a5.042 5.042 0 00-.037-.108l-.02-.057a6.388 6.388 0 00-.05-.133l-.01-.028a6.75 6.75 0 00-.062-.155l-.023-.055-.043-.102-.028-.063a6.95 6.95 0 00-.072-.157c-.018-.038-.035-.075-.054-.111l-.02-.043a5.384 5.384 0 00-.075-.143l-.035-.061-.048-.088-.037-.065-.048-.081a1.789 1.789 0 00-.038-.065c-.018-.03-.035-.059-.054-.088l-.05-.079-.07-.109a6.105 6.105 0 00-.045-.067l-.049-.072-.049-.07a.827.827 0 00-.047-.065c-.017-.02-.035-.048-.052-.071l-.048-.065c-.035-.043-.066-.086-.1-.13l-.046-.06-.06-.073-.046-.055-.063-.074-.044-.052-.067-.075-.04-.043a8.026 8.026 0 00-.25-.265l-.038-.037-.079-.077-.038-.037a6.656 6.656 0 00-.083-.078l-.028-.026a7.077 7.077 0 00-.297-.26l-.028-.022a6.868 6.868 0 00-.094-.077l-.032-.025-.098-.077-.017-.013a8.736 8.736 0 00-.342-.249l-.016-.011a7.832 7.832 0 00-.11-.074l-.024-.016c-.038-.025-.076-.05-.114-.073l-.006-.004a8.098 8.098 0 00-.385-.23l-.005-.003-.124-.067-.018-.01a8.29 8.29 0 00-.678-.324l-.014-.006a8.407 8.407 0 00-.185-.076h1.223c.2 0 .36-.217.36-.486 0-.268-.16-.486-.36-.486h-.364l.074-.185c.345-.204.951-.637 1.553-1.434l.004-.006c.046-.06.09-.121.135-.185l.008-.013c.044-.062.088-.127.131-.194l.012-.018.061-.097s0-.003.003-.004l.063-.103.013-.022a5.48 5.48 0 00.123-.215l.014-.025a5.895 5.895 0 00.12-.227l.013-.027.046-.092.016-.033.055-.116.011-.025.044-.097.018-.04a6.034 6.034 0 00.105-.25l.017-.044.042-.107.01-.027.047-.13.017-.046a6.69 6.69 0 00.108-.327l.035-.106a6.567 6.567 0 00.068-.236l.03-.113.013-.051.038-.151.01-.043.029-.122.012-.055a9.91 9.91 0 00.068-.332l.011-.058c.01-.048.018-.097.026-.145l.006-.03.028-.173.009-.059.02-.142.007-.044.023-.18.007-.058a6.91 6.91 0 00.022-.198l.019-.19c0-.018.003-.035.004-.054l.013-.154c0-.02.003-.038.004-.057l.014-.2c0-.015 0-.033.002-.046l.008-.168c0-.02 0-.041.003-.062l.008-.21v-.03l.004-.191v-.58c0-.065-.003-.133-.005-.2v-.037a28.385 28.385 0 00-.008-.235l-.003-.062a14.082 14.082 0 00-.01-.2c0-.017 0-.033-.003-.051l-.016-.245-.004-.057-.016-.208c0-.02-.003-.04-.005-.06l-.023-.255c0-.016-.003-.032-.005-.049l-.022-.22a19.881 19.881 0 00-.038-.333c0-.012-.004-.023-.005-.033l-.031-.242-.01-.072a45.336 45.336 0 00-.04-.279C35.488-1.407 25.8.09 25.8.09l.31 1.983-5.86 5.869.257 2.266 2.22 1.296c.098-.239.225-.466.378-.677 1.432-1.566 4.21-2.795 5.006-3.05.16-.051.25-.077.25-.077-3.805 4.668-3.372 10.016-3.202 11.29-.177.033-.313.235-.313.481 0 .269.162.486.36.486h1.224c-2.034.808-3.65 2.346-4.492 4.278a2.324 2.324 0 00-.268.724c-.007.018-.012.037-.018.056l-.032.105-.018.065a3.94 3.94 0 00-.028.1l-.02.072-.024.097a4.218 4.218 0 00-.023.1l-.025.111h-.488a.737.737 0 00-.508.19.638.638 0 000 .955.71.71 0 00.508.19H38.28a.738.738 0 00.508-.19.666.666 0 00.212-.477.638.638 0 00-.212-.477.738.738 0 00-.508-.19l-.006-.006zm20.25 0h-.487c0-.006-.003-.01-.004-.016l-.013-.06a4.313 4.313 0 00-.04-.17 8.347 8.347 0 00-.04-.153l-.004-.015a6.588 6.588 0 00-.047-.164l-.017-.053c-.01-.037-.023-.075-.034-.112l-.02-.06a5.042 5.042 0 00-.037-.108l-.02-.057a7.013 7.013 0 00-.049-.133l-.01-.028a6.75 6.75 0 00-.062-.155l-.023-.055-.044-.102-.027-.063a6.95 6.95 0 00-.073-.157 1.892 1.892 0 00-.053-.111c-.008-.014-.014-.028-.021-.043a5.384 5.384 0 00-.075-.143l-.034-.061-.048-.088-.038-.065a8.596 8.596 0 00-.086-.146c-.018-.03-.034-.059-.054-.088l-.049-.079-.07-.109a4.971 4.971 0 00-.046-.067l-.048-.072c-.017-.023-.035-.047-.05-.07a.882.882 0 00-.047-.065c-.016-.02-.034-.048-.052-.071l-.048-.065-.099-.13-.047-.06-.06-.073-.045-.055-.064-.074-.044-.052-.066-.075-.04-.043a8.133 8.133 0 00-.25-.265l-.038-.037-.08-.077-.038-.037a6.656 6.656 0 00-.082-.078l-.029-.026a7.141 7.141 0 00-.297-.26l-.028-.022a6.868 6.868 0 00-.094-.077l-.031-.025-.099-.077-.017-.013a8.736 8.736 0 00-.341-.249l-.016-.011a7.832 7.832 0 00-.11-.074l-.025-.016a2.715 2.715 0 00-.113-.073l-.007-.004a8.098 8.098 0 00-.384-.23l-.005-.003-.124-.067-.019-.01a8.29 8.29 0 00-.678-.324l-.014-.006a8.22 8.22 0 00-.185-.076h1.223c.2 0 .361-.217.361-.486 0-.268-.161-.486-.36-.486h-.365c.023-.054.048-.116.075-.185.344-.204.95-.637 1.552-1.434l.005-.006c.045-.06.09-.121.134-.185l.009-.013a5.03 5.03 0 00.13-.194l.012-.018.062-.097s0-.003.002-.004l.063-.103.013-.022a4.862 4.862 0 00.124-.215l.013-.025a5.133 5.133 0 00.12-.227l.014-.027.045-.092.017-.033.054-.116.012-.025.044-.097.017-.04a6.034 6.034 0 00.105-.25l.017-.044.042-.107.01-.027.048-.13.016-.046a6.69 6.69 0 00.109-.327l.034-.106a12.816 12.816 0 00.15-.55l.01-.044.028-.122.012-.055.035-.16a8.49 8.49 0 00.034-.173l.01-.057c.01-.048.018-.097.027-.145l.005-.03c.01-.058.02-.115.028-.173l.01-.059.02-.142.006-.044.024-.18.007-.058a6.91 6.91 0 00.022-.198l.018-.19c0-.018.003-.035.005-.054l.012-.154c0-.02.003-.038.005-.057l.013-.2c0-.015 0-.033.002-.046l.009-.168c0-.02 0-.041.003-.062l.007-.21v-.03l.004-.191v-.58c0-.065-.002-.133-.004-.2v-.037l-.009-.235-.002-.062a14.082 14.082 0 00-.01-.2c0-.017 0-.033-.003-.051a21.94 21.94 0 00-.016-.245L57.3 9.57l-.016-.208c0-.02-.003-.04-.005-.06l-.023-.255c0-.016-.004-.032-.005-.049l-.023-.22a19.881 19.881 0 00-.038-.333c0-.012-.003-.023-.005-.033l-.03-.242-.01-.072a68.777 68.777 0 00-.04-.279C55.738-1.407 46.049.09 46.049.09l.31 1.983L40.5 7.941l.256 2.266 2.22 1.296c.099-.239.226-.466.379-.677 1.432-1.566 4.21-2.795 5.006-3.05.159-.051.25-.077.25-.077-3.805 4.668-3.372 10.016-3.203 11.29-.176.033-.313.235-.313.481 0 .269.162.486.361.486h1.224c-2.035.808-3.65 2.346-4.493 4.278a2.324 2.324 0 00-.268.724l-.018.056-.032.105-.018.065a3.568 3.568 0 00-.047.172l-.024.097a4.218 4.218 0 00-.023.1l-.026.111h-.487a.738.738 0 00-.508.19.638.638 0 000 .955.71.71 0 00.508.19H58.53a.738.738 0 00.508-.19.637.637 0 000-.955.71.71 0 00-.508-.19l-.006-.005zm20.25 0h-.487c0-.006-.003-.01-.004-.016l-.013-.06a3.965 3.965 0 00-.04-.17 8.343 8.343 0 00-.04-.153l-.004-.015a7.045 7.045 0 00-.048-.164l-.016-.053-.034-.112-.02-.06a6.476 6.476 0 00-.037-.108l-.02-.057a5.865 5.865 0 00-.049-.133l-.01-.028a6.746 6.746 0 00-.086-.21l-.043-.102-.028-.063a5.213 5.213 0 00-.072-.157c-.018-.038-.034-.075-.054-.111l-.02-.043a5.385 5.385 0 00-.075-.143l-.034-.061-.049-.088-.037-.065a11.461 11.461 0 00-.086-.146c-.018-.03-.034-.059-.054-.088l-.05-.079-.07-.109a6.114 6.114 0 00-.045-.067l-.049-.072-.049-.07a.827.827 0 00-.047-.065c-.016-.02-.034-.048-.052-.071l-.048-.065-.1-.13-.046-.06-.06-.073-.046-.055-.063-.074-.044-.052-.067-.075-.039-.043a8.133 8.133 0 00-.251-.265l-.038-.037-.078-.077-.039-.037a6.65 6.65 0 00-.082-.078l-.029-.026a7.08 7.08 0 00-.297-.26l-.028-.022a6.313 6.313 0 00-.094-.077l-.031-.025-.099-.077-.017-.013a8.89 8.89 0 00-.341-.249l-.017-.011a7.822 7.822 0 00-.11-.074l-.024-.016a7.578 7.578 0 00-.113-.073l-.007-.004a8.048 8.048 0 00-.384-.23l-.005-.003-.125-.067-.018-.01a8.305 8.305 0 00-.678-.324l-.014-.006a8.407 8.407 0 00-.185-.076h1.223c.2 0 .361-.217.361-.486 0-.268-.162-.486-.36-.486h-.365a9.24 9.24 0 00.074-.185c.345-.204.951-.637 1.553-1.434l.005-.006c.045-.06.09-.121.134-.185l.009-.013a5.03 5.03 0 00.13-.194l.012-.018.061-.097s0-.003.003-.004l.063-.103.013-.022.053-.091.01-.017.06-.107.014-.025a5.893 5.893 0 00.12-.227l.014-.027.045-.092.016-.033.055-.116.011-.025.045-.097.017-.04a6.703 6.703 0 00.105-.25l.017-.044.042-.107.01-.027.048-.13.016-.046.036-.104c.005-.013.01-.026.013-.04a11.457 11.457 0 00.06-.183l.034-.106.014-.047a7.18 7.18 0 00.054-.19l.03-.112.014-.051.037-.151.01-.043.029-.122.012-.055.034-.16a8.49 8.49 0 00.034-.173l.011-.057c.01-.048.018-.097.026-.145l.006-.03a16.346 16.346 0 00.058-.374l.006-.044.023-.18.007-.058.017-.146.005-.052.019-.19c0-.018.003-.035.004-.054.005-.05.01-.102.013-.154 0-.02.003-.038.004-.057a17.747 17.747 0 00.025-.414c0-.02 0-.041.002-.062l.008-.21v-.03l.004-.191v-.58c0-.065-.003-.133-.004-.2v-.037l-.009-.235-.003-.062a15.729 15.729 0 00-.01-.2c0-.017 0-.033-.003-.051l-.015-.245-.004-.057-.016-.208c0-.02-.004-.04-.005-.06l-.023-.255c0-.016-.004-.032-.005-.049a29.189 29.189 0 00-.062-.554c0-.01-.003-.022-.004-.032l-.031-.242-.01-.072a68.777 68.777 0 00-.04-.279C75.989-1.407 66.3.09 66.3.09l.31 1.983-5.859 5.869.256 2.266 2.22 1.296a3.35 3.35 0 01.378-.677c1.433-1.566 4.21-2.795 5.006-3.05.16-.051.25-.077.25-.077-3.804 4.668-3.372 10.016-3.202 11.29-.177.033-.313.235-.313.481 0 .269.162.486.361.486h1.223c-2.034.808-3.65 2.346-4.492 4.278a7.635 7.635 0 00-.177.444v.005a7.191 7.191 0 00-.091.274l-.018.057-.032.105-.018.065a3.261 3.261 0 00-.047.172l-.025.097a5.537 5.537 0 00-.023.1l-.025.111h-.488a.738.738 0 00-.508.19.666.666 0 00-.212.478.638.638 0 00.212.478.71.71 0 00.508.19H78.78a.737.737 0 00.508-.19.637.637 0 000-.955.71.71 0 00-.508-.19l-.006-.006z" fill="#595653"/></svg>